<svg width="106" height="106" viewBox="0 0 106 106" fill="none" xmlns="http://www.w3.org/2000/svg">
<g filter="url(#filter0_d_600_282)">
<rect x="1" y="1" width="90" height="90" rx="25" fill="#F29479"/>
<rect x="3.5" y="3.5" width="85" height="85" rx="22.5" stroke="black" stroke-width="5"/>
</g>
<path d="M64.8335 43.5833H53.0272V37.3333C53.0272 36.7808 52.8078 36.2509 52.4171 35.8602C52.0264 35.4695 51.4965 35.25 50.9439 35.25H37.0564C36.5039 35.25 35.974 35.4695 35.5833 35.8602C35.1926 36.2509 34.9731 36.7808 34.9731 37.3333V51.9167H23.1668C22.6143 51.9167 22.0844 52.1362 21.6937 52.5269C21.303 52.9176 21.0835 53.4475 21.0835 54V70.6667C21.0835 71.2192 21.303 71.7491 21.6937 72.1398C22.0844 72.5305 22.6143 72.75 23.1668 72.75H64.8335C65.386 72.75 65.9159 72.5305 66.3066 72.1398C66.6973 71.7491 66.9168 71.2192 66.9168 70.6667V45.6667C66.9168 45.1141 66.6973 44.5842 66.3066 44.1935C65.9159 43.8028 65.386 43.5833 64.8335 43.5833ZM34.9731 68.5833H25.2502V56.0833H34.9731V68.5833ZM48.8606 68.5833H39.1397V39.4167H48.8606V68.5833ZM62.7502 68.5833H53.0272V47.75H62.7502V68.5833Z" fill="black"/>
<path d="M54.424 14.0939C54.2517 14.0132 54.06 13.9834 53.8714 14.0078C53.6828 14.0322 53.505 14.11 53.359 14.2319L48.144 18.5789L44.781 14.3789C44.6838 14.2673 44.5637 14.1779 44.429 14.1166C44.2943 14.0553 44.148 14.0236 44 14.0236C43.852 14.0236 43.7057 14.0553 43.571 14.1166C43.4363 14.1779 43.3162 14.2673 43.219 14.3789L39.856 18.5789L34.64 14.2319C34.494 14.1103 34.3164 14.0328 34.1279 14.0085C33.9395 13.9842 33.748 14.0141 33.5759 14.0947C33.4038 14.1752 33.2583 14.3032 33.1563 14.4635C33.0543 14.6238 33.0001 14.8099 33 14.9999V28.9999C33 29.7955 33.3161 30.5586 33.8787 31.1212C34.4413 31.6838 35.2044 31.9999 36 31.9999H52C52.7956 31.9999 53.5587 31.6838 54.1213 31.1212C54.6839 30.5586 55 29.7955 55 28.9999V14.9999C55.0001 14.8097 54.9459 14.6235 54.8439 14.463C54.7419 14.3026 54.5962 14.1745 54.424 14.0939ZM53 28.9999C53 29.2651 52.8946 29.5195 52.7071 29.707C52.5196 29.8945 52.2652 29.9999 52 29.9999H36C35.7348 29.9999 35.4804 29.8945 35.2929 29.707C35.1054 29.5195 35 29.2651 35 28.9999V27.9999H53V28.9999ZM53 25.9999H35V17.1349L39.36 20.7679C39.4621 20.8531 39.5802 20.917 39.7074 20.956C39.8346 20.9949 39.9682 21.0081 40.1005 20.9948C40.2329 20.9815 40.3612 20.9419 40.478 20.8784C40.5949 20.8149 40.6979 20.7287 40.781 20.6249L44 16.5999L47.219 20.6239C47.3021 20.7279 47.4052 20.8142 47.5221 20.8778C47.639 20.9414 47.7675 20.981 47.8999 20.9943C48.0324 21.0077 48.1662 20.9944 48.2934 20.9553C48.4207 20.9163 48.5388 20.8522 48.641 20.7669L53 17.1349V25.9999Z" fill="black"/>
<path d="M46 22H42C41.7348 22 41.4804 22.1054 41.2929 22.2929C41.1054 22.4804 41 22.7348 41 23C41 23.2652 41.1054 23.5196 41.2929 23.7071C41.4804 23.8946 41.7348 24 42 24H46C46.2652 24 46.5196 23.8946 46.7071 23.7071C46.8946 23.5196 47 23.2652 47 23C47 22.7348 46.8946 22.4804 46.7071 22.2929C46.5196 22.1054 46.2652 22 46 22Z" fill="black"/>
<defs>
<filter id="filter0_d_600_282" x="0" y="0" width="106" height="106" filterUnits="userSpaceOnUse" color-interpolation-filters="sRGB">
<feFlood flood-opacity="0" result="BackgroundImageFix"/>
<feColorMatrix in="SourceAlpha" type="matrix" values="0 0 0 0 0 0 0 0 0 0 0 0 0 0 0 0 0 0 127 0" result="hardAlpha"/>
<feOffset dx="7" dy="7"/>
<feGaussianBlur stdDeviation="4"/>
<feComposite in2="hardAlpha" operator="out"/>
<feColorMatrix type="matrix" values="0 0 0 0 0 0 0 0 0 0 0 0 0 0 0 0 0 0 0.25 0"/>
<feBlend mode="normal" in2="BackgroundImageFix" result="effect1_dropShadow_600_282"/>
<feBlend mode="normal" in="SourceGraphic" in2="effect1_dropShadow_600_282" result="shape"/>
</filter>
</defs>
</svg>
