<svg width="512" height="512" viewBox="0 0 512 512" fill="none" xmlns="http://www.w3.org/2000/svg">
<path d="M380.946 241.847H101.605L31.7695 381.517H450.781L380.946 241.847Z" stroke="black" stroke-width="10" stroke-miterlimit="10" stroke-linecap="round" stroke-linejoin="round"/>
<path d="M450.781 381.517H31.7695V495H450.781V381.517Z" stroke="black" stroke-width="10" stroke-miterlimit="10" stroke-linecap="round" stroke-linejoin="round"/>
<path d="M348.607 438.258C348.607 449.239 339.711 458.135 328.73 458.135C322.229 458.135 316.459 455.017 312.829 450.184C310.339 446.863 308.853 442.729 308.853 438.258C308.853 433.788 310.338 429.654 312.829 426.331C316.46 421.499 322.229 418.381 328.73 418.381C339.712 418.381 348.607 427.277 348.607 438.258ZM173.691 438.258C173.691 442.729 172.208 446.862 169.716 450.184C166.094 455.017 160.317 458.135 153.815 458.135C142.842 458.135 133.938 449.239 133.938 438.258C133.938 427.278 142.842 418.381 153.815 418.381C160.317 418.381 166.094 421.499 169.716 426.331C172.208 429.654 173.691 433.788 173.691 438.258Z" stroke="black" stroke-width="10" stroke-miterlimit="10" stroke-linecap="round" stroke-linejoin="round"/>
<path d="M308.854 438.258C308.854 442.729 310.339 446.862 312.83 450.184H169.716C172.207 446.863 173.691 442.729 173.691 438.258C173.691 433.788 172.208 429.654 169.716 426.331H312.829C310.339 429.654 308.854 433.788 308.854 438.258Z" stroke="black" stroke-width="10" stroke-miterlimit="10" stroke-linecap="round" stroke-linejoin="round"/>
<path d="M257.13 241.847H101.605V328.034H379.925V241.847H356.956" stroke="black" stroke-width="10" stroke-miterlimit="10" stroke-linecap="round" stroke-linejoin="round"/>
<path d="M379.086 328.034H240.345H101.605L83.9805 381.517H240.345H396.71L379.086 328.034Z" stroke="black" stroke-width="10" stroke-miterlimit="10" stroke-linecap="round" stroke-linejoin="round"/>
<path d="M83.8433 213.182L72.6523 188.61" stroke="black" stroke-width="10" stroke-miterlimit="10" stroke-linecap="round" stroke-linejoin="round"/>
<path d="M100.224 205.721L106.915 187.84" stroke="black" stroke-width="10" stroke-miterlimit="10" stroke-linecap="round" stroke-linejoin="round"/>
<path d="M67.4621 220.643L49.5811 213.952" stroke="black" stroke-width="10" stroke-miterlimit="10" stroke-linecap="round" stroke-linejoin="round"/>
<path d="M163.168 306.808C163.088 306.808 163.007 306.806 162.926 306.802C159.227 306.626 155.622 306.162 152.211 305.425C149.512 304.842 147.796 302.181 148.38 299.482C148.964 296.783 151.624 295.068 154.323 295.652C157.198 296.273 160.252 296.664 163.401 296.814C166.159 296.945 168.289 299.288 168.157 302.046C168.031 304.723 165.82 306.808 163.168 306.808ZM183.042 305.185C180.699 305.185 178.607 303.53 178.141 301.144C177.61 298.434 179.377 295.807 182.087 295.277C185.094 294.689 188.222 293.93 191.382 293.023C194.037 292.258 196.806 293.794 197.568 296.449C198.33 299.103 196.796 301.873 194.142 302.635C190.705 303.621 187.296 304.448 184.008 305.092C183.684 305.154 183.361 305.185 183.042 305.185ZM135.075 297.599C134.064 297.599 133.043 297.293 132.16 296.658C129.159 294.5 126.39 292.002 123.931 289.234C122.097 287.17 122.284 284.009 124.348 282.174C126.412 280.34 129.573 280.528 131.407 282.591C133.378 284.81 135.595 286.811 137.999 288.54C140.241 290.152 140.751 293.276 139.139 295.519C138.162 296.876 136.63 297.599 135.075 297.599ZM119.402 273.162C116.913 273.162 114.757 271.305 114.446 268.771C114.012 265.242 113.702 261.775 113.526 258.468C113.379 255.71 115.495 253.356 118.253 253.209C120.991 253.05 123.365 255.178 123.512 257.935C123.677 261.013 123.966 264.248 124.371 267.55C124.708 270.291 122.76 272.786 120.019 273.123C119.812 273.149 119.605 273.162 119.402 273.162ZM119.285 243.26C119.042 243.26 118.796 243.242 118.548 243.206C115.816 242.803 113.929 240.261 114.332 237.529C114.874 233.86 115.65 230.341 116.639 227.069C117.437 224.426 120.229 222.928 122.871 223.729C125.515 224.528 127.01 227.318 126.211 229.961C125.363 232.766 124.695 235.803 124.225 238.99C123.858 241.474 121.723 243.26 119.285 243.26ZM311.729 232.481C311.588 232.481 311.447 232.475 311.304 232.463C308.084 232.192 304.606 231.74 300.966 231.119C298.244 230.654 296.414 228.071 296.879 225.349C297.344 222.627 299.92 220.793 302.65 221.262C306.01 221.836 309.204 222.252 312.142 222.499C314.894 222.73 316.937 225.148 316.705 227.9C316.486 230.508 314.301 232.481 311.729 232.481ZM331.588 231.292C329.363 231.292 327.334 229.796 326.751 227.542C326.06 224.869 327.667 222.141 330.34 221.45C333.249 220.698 335.875 219.604 338.146 218.199C340.492 216.746 343.575 217.47 345.029 219.818C346.483 222.166 345.758 225.248 343.41 226.701C340.284 228.637 336.729 230.128 332.845 231.132C332.424 231.24 332.003 231.292 331.588 231.292ZM282.307 226.766C281.874 226.766 281.435 226.709 280.996 226.591C277.948 225.765 274.763 224.856 271.256 223.81C268.61 223.021 267.105 220.236 267.893 217.59C268.682 214.944 271.463 213.437 274.114 214.227C277.539 215.248 280.646 216.135 283.612 216.938C286.277 217.66 287.852 220.406 287.131 223.072C286.526 225.299 284.509 226.766 282.307 226.766ZM253.601 218.041C253.092 218.041 252.575 217.963 252.065 217.798L242.547 214.722C239.919 213.874 238.475 211.056 239.323 208.429C240.171 205.801 242.989 204.356 245.616 205.205L255.135 208.281C257.762 209.129 259.206 211.947 258.358 214.575C257.676 216.692 255.713 218.041 253.601 218.041ZM130.72 216.002C129.571 216.002 128.417 215.608 127.475 214.804C125.375 213.01 125.127 209.854 126.921 207.755C129.332 204.933 132.09 202.391 135.12 200.199C137.356 198.581 140.483 199.081 142.101 201.319C143.72 203.556 143.218 206.682 140.981 208.3C138.593 210.028 136.42 212.029 134.524 214.249C133.536 215.407 132.132 216.002 130.72 216.002ZM353.156 212.197C352.525 212.197 351.884 212.077 351.264 211.823C349.881 211.257 348.889 210.144 348.434 208.836C347.233 208.42 346.039 207.953 344.856 207.438C342.325 206.334 341.168 203.388 342.271 200.856C343.374 198.325 346.322 197.166 348.852 198.271C349.448 198.531 350.045 198.774 350.645 199.002C350.904 198.122 351.146 197.254 351.371 196.403C352.077 193.733 354.81 192.138 357.483 192.847C360.153 193.553 361.745 196.289 361.039 198.959C360.743 200.077 360.422 201.219 360.076 202.376C361.096 203.484 361.606 205.038 361.324 206.636C360.912 208.972 358.939 210.641 356.667 210.761C355.733 211.678 354.468 212.197 353.156 212.197ZM224.983 208.979C224.508 208.979 224.026 208.911 223.548 208.768C220.157 207.754 217.048 206.859 214.041 206.032C211.378 205.3 209.814 202.548 210.546 199.885C211.278 197.223 214.029 195.659 216.693 196.39C219.771 197.237 222.95 198.152 226.413 199.187C229.059 199.979 230.562 202.765 229.771 205.41C229.123 207.578 227.135 208.979 224.983 208.979ZM375.883 208.257C374.069 208.257 372.319 207.266 371.432 205.541C370.17 203.085 371.138 200.071 373.594 198.809C375.971 197.588 378.136 195.909 380.03 193.818C381.884 191.772 385.045 191.613 387.093 193.468C389.14 195.322 389.296 198.484 387.443 200.531C384.738 203.517 381.617 205.93 378.166 207.704C377.433 208.079 376.652 208.257 375.883 208.257ZM195.954 201.382C195.641 201.382 195.324 201.352 195.005 201.291C191.846 200.684 188.653 200.203 185.515 199.861C182.77 199.562 180.787 197.094 181.086 194.349C181.386 191.604 183.855 189.625 186.598 189.92C190.005 190.292 193.468 190.813 196.891 191.471C199.603 191.992 201.379 194.613 200.858 197.325C200.399 199.718 198.304 201.382 195.954 201.382ZM156.211 201.209C153.947 201.209 151.896 199.662 151.351 197.363C150.713 194.676 152.374 191.981 155.061 191.343C158.391 190.552 161.942 189.977 165.617 189.633C168.353 189.368 170.804 191.395 171.061 194.145C171.319 196.894 169.299 199.332 166.549 199.589C163.337 199.89 160.248 200.389 157.37 201.072C156.982 201.166 156.593 201.209 156.211 201.209ZM330.93 196.056C329.474 196.056 328.031 195.423 327.042 194.204C324.393 190.934 322.515 187.518 321.461 184.05L321.371 183.746C320.593 181.097 322.109 178.318 324.759 177.539C327.409 176.761 330.188 178.279 330.965 180.927L331.03 181.144C331.706 183.37 332.978 185.645 334.811 187.908C336.549 190.054 336.219 193.202 334.074 194.941C333.148 195.691 332.035 196.056 330.93 196.056ZM392.678 184.518C392.255 184.518 391.824 184.464 391.396 184.35C388.726 183.643 387.135 180.907 387.841 178.237C388.584 175.429 389.167 172.351 389.573 169.088C389.915 166.348 392.424 164.408 395.152 164.744C397.893 165.085 399.838 167.583 399.497 170.324C399.035 174.032 398.366 177.555 397.509 180.797C396.915 183.036 394.892 184.518 392.678 184.518ZM358.655 182.918C356.04 182.918 353.841 180.885 353.671 178.239C353.472 175.146 352.865 172.494 351.867 170.357C350.7 167.855 351.781 164.879 354.284 163.712C356.785 162.545 359.762 163.626 360.93 166.129C362.455 169.399 363.371 173.258 363.65 177.598C363.828 180.354 361.737 182.731 358.982 182.909C358.872 182.915 358.763 182.918 358.655 182.918ZM331.177 169.108C329.8 169.108 328.431 168.543 327.443 167.435C325.605 165.373 325.787 162.213 327.848 160.375C331.057 157.515 334.951 155.591 339.109 154.811C341.826 154.301 344.435 156.089 344.945 158.803C345.455 161.517 343.668 164.13 340.953 164.639C338.617 165.077 336.326 166.214 334.503 167.84C333.549 168.69 332.36 169.108 331.177 169.108ZM395.51 155.306C393.326 155.306 392.08 154.305 391.327 152.978C390.637 152.165 390.2 151.124 390.147 149.976C390.121 149.425 390.092 148.869 390.059 148.307C390.056 148.262 390.053 148.217 390.051 148.172C390.007 147.391 389.991 146.877 389.991 146.566C389.991 143.113 392.583 141.251 395.021 141.251C399.517 141.251 400.07 145.671 400.278 147.334C400.371 148.076 400.526 149.431 400.526 150.177C400.527 153.388 397.977 155.306 395.51 155.306Z" fill="black"/>
<path d="M414.489 49.5L412.709 61.95L409.579 83.86L405.489 112.5C405.489 112.5 405.489 126 391.989 126C378.489 126 378.489 112.5 378.489 112.5L374.399 83.86L371.269 61.95L369.489 49.5C369.489 49.5 369.489 27 391.989 27C414.489 27 414.489 49.5 414.489 49.5Z" stroke="black" stroke-width="10" stroke-miterlimit="10" stroke-linecap="round" stroke-linejoin="round"/>
<path d="M374.399 83.86C367.579 89.28 352.849 99 334.869 99C309.944 99 303.711 74.08 303.711 74.08C303.711 74.08 309.944 49.15 334.869 49.15C350.459 49.15 363.609 56.46 371.269 61.95L374.399 83.86ZM480.259 74.08C480.259 74.08 474.03 99 449.11 99C431.13 99 416.4 89.28 409.58 83.86L412.71 61.95C420.37 56.46 433.521 49.15 449.11 49.15C474.029 49.15 480.259 74.08 480.259 74.08Z" stroke="black" stroke-width="10" stroke-miterlimit="10" stroke-linecap="round" stroke-linejoin="round"/>
<path d="M400.989 28.482L405.489 18" stroke="black" stroke-width="10" stroke-miterlimit="10" stroke-linecap="round" stroke-linejoin="round"/>
<path d="M382.989 28.482L378.489 18" stroke="black" stroke-width="10" stroke-miterlimit="10" stroke-linecap="round" stroke-linejoin="round"/>
<path d="M406.499 105.43H377.85" stroke="black" stroke-width="10" stroke-miterlimit="10" stroke-linecap="round" stroke-linejoin="round"/>
<path d="M408.978 88.07H375.416" stroke="black" stroke-width="10" stroke-miterlimit="10" stroke-linecap="round" stroke-linejoin="round"/>
</svg>
